<svg xmlns="http://www.w3.org/2000/svg" id="Ebene_1" x="0" y="0" viewBox="0 0 329.19 139.13" style="enable-background:new 0 0 329.19 139.13" xml:space="preserve">  <style>.st1{fill:#005a9a}.st2{fill:#ffd500}</style>  <path class="st1" d="M39.73 85.89c-4.63 4.63-10.15 6.95-16.55 6.95s-11.86-2.26-16.39-6.79S0 76.07 0 69.67 2.26 57.8 6.79 53.28s9.99-6.79 16.39-6.79 11.86 2.26 16.39 6.79 6.79 9.99 6.79 16.39v19.86c0 .91-.32 1.69-.97 2.34-.65.65-1.43.97-2.34.97-.91 0-1.69-.32-2.34-.97-.65-.65-.97-1.43-.97-2.34v-3.64zM23.17 53.11c-4.58 0-8.48 1.61-11.71 4.84-3.23 3.23-4.84 7.13-4.84 11.71s1.61 8.48 4.84 11.71c3.23 3.23 7.13 4.84 11.71 4.84s8.48-1.61 11.71-4.84c3.23-3.23 4.84-7.13 4.84-11.71s-1.61-8.48-4.84-11.71c-3.22-3.22-7.13-4.84-11.71-4.84zM92.36 81.5c.91 0 1.69.32 2.34.97s.97 1.43.97 2.34c0 .91-.34 1.72-1.03 2.44-4.28 3.72-9.31 5.59-15.11 5.59-6.4 0-11.86-2.26-16.39-6.79s-6.79-9.99-6.79-16.39 2.26-11.86 6.79-16.39 9.99-6.79 16.39-6.79c5.79 0 10.83 1.86 15.11 5.59.77.69 1.16 1.54 1.16 2.57 0 .91-.32 1.69-.97 2.34-.65.65-1.43.97-2.34.97-.8 0-1.5-.25-2.11-.74-3.09-2.73-6.7-4.1-10.84-4.1-4.58 0-8.48 1.61-11.71 4.84-3.23 3.23-4.84 7.13-4.84 11.71s1.61 8.48 4.84 11.71c3.23 3.23 7.13 4.84 11.71 4.84 4.14 0 7.74-1.35 10.8-4.06.58-.43 1.25-.65 2.02-.65z"></path>  <path class="st2" d="M179.56 81.5c.91 0 1.69.32 2.34.97s.97 1.43.97 2.34c0 .91-.34 1.72-1.03 2.44-4.28 3.72-9.31 5.59-15.11 5.59-6.4 0-11.86-2.26-16.39-6.79s-6.79-9.99-6.79-16.39 2.26-11.86 6.79-16.39 9.99-6.79 16.39-6.79c5.79 0 10.83 1.86 15.11 5.59.77.69 1.16 1.54 1.16 2.57 0 .91-.32 1.69-.97 2.34-.65.65-1.43.97-2.34.97-.8 0-1.5-.25-2.11-.74-3.09-2.73-6.7-4.1-10.84-4.1-4.58 0-8.48 1.61-11.71 4.84-3.23 3.23-4.84 7.13-4.84 11.71s1.61 8.48 4.84 11.71c3.23 3.23 7.13 4.84 11.71 4.84 4.14 0 7.74-1.35 10.8-4.06.57-.43 1.25-.65 2.02-.65zm49.65.09c.91 0 1.69.32 2.34.97.65.65.97 1.43.97 2.34s-.32 1.7-.95 2.36c-4.28 3.72-9.31 5.59-15.11 5.59-6.4 0-11.86-2.26-16.39-6.79s-6.79-9.99-6.79-16.39 2.26-11.86 6.79-16.39 9.99-6.79 16.39-6.79 11.86 2.26 16.39 6.79 6.79 9.99 6.79 16.39c0 .91-.32 1.69-.97 2.34-.65.65-1.43.97-2.34.97H200.2c.61 3.17 2.12 5.97 4.55 8.4 3.23 3.23 7.13 4.84 11.71 4.84 4.14 0 7.7-1.31 10.68-3.93.61-.47 1.3-.7 2.07-.7zm3.52-15.23c-.61-3.17-2.12-5.97-4.55-8.4-3.23-3.23-7.13-4.84-11.71-4.84s-8.48 1.61-11.71 4.84c-2.43 2.43-3.95 5.23-4.55 8.4h32.52zm16.92-16.56c0-.91.32-1.69.97-2.34.65-.65 1.43-.97 2.34-.97.91 0 1.69.32 2.34.97.65.65.97 1.43.97 2.34v2.69c4.14-4 9.1-6 14.9-6 5.93 0 11 2.1 15.21 6.31 4.21 4.21 6.31 9.28 6.31 15.21v21.52c0 .91-.32 1.69-.97 2.34-.65.65-1.43.97-2.34.97-.91 0-1.69-.32-2.34-.97-.65-.65-.97-1.43-.97-2.34V68.01c0-4.11-1.46-7.62-4.37-10.53-2.91-2.91-6.42-4.37-10.53-4.37-4.11 0-7.62 1.46-10.53 4.37-2.91 2.91-4.37 6.42-4.37 10.53v21.52c0 .91-.32 1.69-.97 2.34-.65.65-1.43.97-2.34.97-.91 0-1.69-.32-2.34-.97-.65-.65-.97-1.43-.97-2.34V49.8zm76.23 36.42c.91 0 1.69.32 2.34.97.65.65.97 1.43.97 2.34s-.32 1.69-.97 2.34c-.65.65-1.43.97-2.34.97-11.04 0-16.55-5.52-16.55-16.55V53.11h-3.31c-.91 0-1.69-.32-2.34-.97-.65-.65-.97-1.43-.97-2.34 0-.91.32-1.69.97-2.34.65-.65 1.43-.97 2.34-.97h3.31V29.94c0-.91.32-1.69.97-2.34s1.43-.97 2.34-.97c.91 0 1.69.32 2.34.97s.97 1.43.97 2.34v16.55h6.66c.91 0 1.69.32 2.34.97.65.65.97 1.43.97 2.34 0 .91-.32 1.69-.97 2.34-.65.65-1.43.97-2.34.97h-6.66v23.17c0 6.63 3.31 9.94 9.93 9.94z"></path>  <path class="st1" d="M99.12 104.18c-.46 0-.92-.09-1.36-.29-1.67-.75-2.41-2.7-1.66-4.35l44.45-97.6A3.325 3.325 0 0 1 144.94.3c1.67.75 2.41 2.7 1.66 4.35l-44.45 97.6a3.342 3.342 0 0 1-3.03 1.93z"></path>  <path class="st2" d="M99.14 139.13a3.284 3.284 0 0 1-3-4.63l44.45-98.17a3.3 3.3 0 0 1 4.36-1.64c1.66.75 2.39 2.69 1.65 4.34l-44.45 98.17a3.313 3.313 0 0 1-3.01 1.93z"></path></svg>