<?xml version="1.0" encoding="utf-8"?>
<!-- Generator: Adobe Illustrator 27.9.0, SVG Export Plug-In . SVG Version: 6.00 Build 0)  -->
<svg version="1.1" id="Ebene_1" xmlns="http://www.w3.org/2000/svg" xmlns:xlink="http://www.w3.org/1999/xlink" x="0px" y="0px"
	 viewBox="0 0 1920 507.5" style="enable-background:new 0 0 1920 507.5;" xml:space="preserve">
<style type="text/css">
	.st0{fill:#E84F2D;}
	.st1{fill:#B42413;}
	.st2{fill:#FFDE30;}
	.st3{fill:#F6A500;}
	.st4{fill:#FFCB00;}
	.st5{fill:#847A79;}
</style>
<g>
	<g>
		<path class="st0" d="M396.2,333.6c0,103-137.6,159.2-240.2,159.2S2.3,424.5,2.3,321.5s58.7-170.8,161.3-170.8
			S396.2,230.6,396.2,333.6"/>
	</g>
	<g>
		<path class="st1" d="M204.4,497.5c-97.7,0-201.7-60.9-201.7-173.9c0-107.3,70.6-222.2,175.8-222.2c107,0,178.9,71.5,178.9,177.9
			c0,56.4-12.7,108.9-35.8,147.7C294.2,473.1,253.7,497.5,204.4,497.5 M178.7,114.8c-97.2,0-162.5,108-162.5,208.8
			c0,104.3,97,160.5,188.3,160.5c96.5,0,139.6-102.9,139.6-204.9C344.1,180.8,277.6,114.8,178.7,114.8"/>
	</g>
	<g>
		<path class="st0" d="M325.2,323.5c0,85.9-31.6,107-117.1,107S0,402.5,0,316.7s94.6-193.2,180.1-193.2
			C265.6,123.5,325.2,237.6,325.2,323.5"/>
	</g>
	<g>
		<path class="st2" d="M205.7,441.4c-88.7,0-147.8-18.5-147.8-108.7c0-88.2,55.5-211.2,145.8-211.2c43.5,0,87.2,15.6,119.8,42.7
			c34.8,29.1,54.1,68.3,54.1,110.5C377.6,362,295.7,441.4,205.7,441.4 M203.7,134.8c-80.9,0-132.5,117.2-132.5,197.8
			c0,79.7,49.3,95.4,134.4,95.4c82.9,0,158.5-73.1,158.5-153.3C364.2,191.1,281.2,134.8,203.7,134.8"/>
	</g>
	<g>
		<path class="st3" d="M197.8,475.3c-42.8,0-90.1-15.9-126.4-42.5C30.2,402.6,7.5,363,7.5,321.1c0-90.8,120.7-140.9,204.1-140.9
			c85.8,0,122.4,37.8,122.4,126.2C334.1,387.8,291.4,475.3,197.8,475.3z M211.6,188c-80.3,0-196.4,47.4-196.4,133.2
			c0,39.3,21.6,76.7,60.7,105.4c35.1,25.7,80.6,41,121.9,41c88.3,0,128.5-83.5,128.5-161.1C326.3,221.2,294.2,188,211.6,188z"/>
	</g>
	<g>
		<path class="st3" d="M317.4,284.5c0,52.3-78.4,132.2-130.5,132.2c-52.1,0-100.3-88.8-100.3-141.2s36.6-72.5,88.7-72.5
			C227.4,203,317.4,232.2,317.4,284.5"/>
	</g>
	<g>
		<path class="st3" d="M194.9,425.4c-57.6,0-88.6-55.4-88.6-107.5c0-82.4,41.2-99.7,75.7-99.7c53.1,0,103.2,54.7,103.2,112.6
			C285.1,387.3,248.9,425.4,194.9,425.4 M181.9,231.5c-41.4,0-62.3,29-62.3,86.3c0,61.8,37.9,94.1,75.3,94.1
			c46.7,0,76.9-31.9,76.9-81.3C271.8,279.7,228.1,231.5,181.9,231.5"/>
	</g>
	<g>
		<path class="st2" d="M256.2,283.8c0,45-29.1,82.5-73.9,82.5s-37.7-45.1-37.7-90.1c0-45,40.2-56.1,84.9-56.1
			C274.3,220.3,256.2,238.9,256.2,283.8"/>
	</g>
	<g>
		<path class="st2" d="M199.7,413.5c-50,0-98.9-61.3-98.9-107.1c0-47.8,77.5-105.3,126.2-105.3c56.8,0,64.1,41.9,64.1,78.5
			C291.2,324.9,249.8,413.5,199.7,413.5 M227,214.5c-41.9,0-112.8,52.3-112.8,92c0,42.9,46.3,93.7,85.5,93.7
			c38.8,0,78.1-77.3,78.1-120.5C277.8,232.7,263.6,214.5,227,214.5"/>
	</g>
	<g>
		<path class="st3" d="M187,399.8c-69.2,0-92.6-22.8-92.6-90.3c0-73.2,24.2-158.7,92.4-158.7c32.2,0,67.7,20.2,97.1,55.3
			c27.6,33,44.2,72.3,44.2,104.9C328.1,351.5,303.6,399.8,187,399.8z M186.8,158.5c-62.5,0-84.7,81.3-84.7,151
			c0,63.3,19.8,82.6,84.8,82.6c87.3,0,133.4-28,133.4-81c0-30.9-15.8-68.3-42.4-100C250,177.7,216.8,158.5,186.8,158.5z"/>
	</g>
	<g>
		<path class="st4" d="M182,427.4c-82.1,0-131.1-44.4-131.1-118.9c0-75.9,88.8-128.7,168.5-128.7c36.9,0,71.3,17.9,97,50.6
			c23.2,29.7,36.6,68.4,36.6,106.3C352.9,427.4,233.1,427.4,182,427.4z M219.4,187.6c-76,0-160.8,49.7-160.8,121
			c0,69.6,46.1,111.1,123.4,111.1c48.8,0,163.2,0,163.2-83c0-36.2-12.7-73.2-34.9-101.5C286.1,204.5,253.9,187.6,219.4,187.6z"/>
	</g>
</g>
<g>
	<path class="st5" d="M839.2,44.3h14.6L864.2,85l11.4-36.6h12.7L899.8,85l10.3-40.8h14.6l-15.5,56.9h-15.1l-12.2-39l-12.2,39h-15.1
		L839.2,44.3z"/>
	<path class="st5" d="M950.7,28.4h-14.9V11.2h14.9V28.4z M950.7,101.1h-14.9V44.3h14.9V101.1z"/>
	<path class="st5" d="M1003.6,43.1h0.6v14.7h-5c-10.4,0-16.9,3.5-16.9,19.4v23.9h-14.9V44.3h14.9v14.7h0.3
		C986.6,47.6,994.1,43.1,1003.6,43.1z"/>
	<path class="st5" d="M1041.4,44.3h16v12.2h-16v44.7h-15V56.5h-13.9V44.3h13.9V28.9l14.8-13.1h0.2V44.3z"/>
	<path class="st5" d="M1062.9,83.7h14c0.5,5.4,3.9,8.8,10,8.8c5,0,8.2-2.5,8.2-5.9c0-3.3-2.4-5.5-8.2-7.5l-7.8-2.8
		c-9.4-3.3-14.6-9.8-14.6-17.7c0-9.5,8.5-16.5,20.7-16.5c10.6,0,20.4,6.1,21.4,18H1093c-0.8-5.1-4.1-7.4-7.9-7.4
		c-4.1,0-6.9,2.4-6.9,5.7c0,3.7,2.8,5.6,6.5,6.9l7.5,2.8c10.3,3.8,16.5,8.5,16.5,18c0,9.3-8.7,17-22,17
		C1073.7,103,1063.6,95.6,1062.9,83.7z"/>
	<path class="st5" d="M1117.4,72.6c0-17.2,12.3-30.3,29.9-30.3c15.4,0,26.1,9.6,29.1,22.9h-14.7c-2-6.6-6.9-10.9-14.3-10.9
		c-9.3,0-15.1,8-15.1,18.3c0,10.3,5.8,18.4,15.1,18.4c7.4,0,12.3-4.2,14.3-10.9h14.7c-3.1,13.1-13.9,22.9-29.2,22.9
		C1129.6,103,1117.4,89.9,1117.4,72.6z"/>
	<path class="st5" d="M1222.7,42.4c9.5,0,18.8,5.9,18.8,22.1v36.6h-14.9V67.6c0-8.8-3.8-13-9.9-13c-8.6,0-13.2,7.7-13.2,22.9v23.7
		h-15V7.1h15v50h0.3C1207.1,47.6,1213.5,42.4,1222.7,42.4z"/>
	<path class="st5" d="M1253.8,72.7c0-19.3,12.7-30.3,25.8-30.3c10.1,0,16.1,6.9,18.8,12.8h0.3v-11h14.9v56.9h-14.9v-11h-0.3
		c-2.6,5.9-8.8,12.8-18.9,12.8C1266.4,103,1253.8,92,1253.8,72.7z M1299.3,72.7c0-11.8-7.1-18.5-15.2-18.5c-8,0-15.2,6.7-15.2,18.5
		s7.1,18.5,15.2,18.5C1292.2,91.2,1299.3,84.5,1299.3,72.7z"/>
	<path class="st5" d="M1369.2,20.7h-3.4c-9.1,0-12.4,4.9-12.4,14.4v9.1h13.1v12.2h-13.1v44.7h-14.9V56.4H1324V44.2h14.4v-9.7
		c0-19.1,10.3-27.5,25.4-27.5h5.4L1369.2,20.7L1369.2,20.7z"/>
	<path class="st5" d="M1404.9,44.3h16v12.2h-16v44.7h-14.9V56.5h-13.9V44.3h13.9V28.9l14.8-13.1h0.2L1404.9,44.3L1404.9,44.3z"/>
	<path class="st5" d="M1426.4,83.7h14c0.5,5.4,3.9,8.8,10,8.8c5,0,8.2-2.5,8.2-5.9c0-3.3-2.4-5.5-8.2-7.5l-7.8-2.8
		c-9.4-3.3-14.6-9.8-14.6-17.7c0-9.5,8.5-16.5,20.7-16.5c10.6,0,20.4,6.1,21.4,18h-13.6c-0.8-5.1-4.1-7.4-7.9-7.4
		c-4.1,0-6.9,2.4-6.9,5.7c0,3.7,2.8,5.6,6.5,6.9l7.5,2.8c10.3,3.8,16.5,8.5,16.5,18c0,9.3-8.7,17-22,17
		C1437.2,103,1427.1,95.6,1426.4,83.7z"/>
	<path class="st5" d="M1481.1,72.7c0-19.3,12.7-30.3,25.8-30.3c10.1,0,16.1,6.9,18.8,12.8h0.3v-11h14.9v56.9h-14.9v-11h-0.3
		c-2.6,5.9-8.8,12.8-18.9,12.8C1493.7,103,1481.1,92,1481.1,72.7z M1526.6,72.7c0-11.8-7.1-18.5-15.2-18.5s-15.2,6.7-15.2,18.5
		s7.1,18.5,15.2,18.5C1519.5,91.2,1526.6,84.5,1526.6,72.7z"/>
	<path class="st5" d="M1584.4,133.4c-17.2,0-31-11.5-31.8-32.3h14.7c0.5,14.3,8.5,20.2,17.2,20.2c9.6,0,15.6-5.9,15.6-13.3
		c0-7.1-5.9-14.3-17.2-14.3h-0.8c-16.9,0-27.6-12.3-27.6-25.8c0-13.3,10.7-25.7,27.6-25.7c4.1,0,7.8,0.6,11.1,2h31.3l-8.2,9.9h-10.7
		c2.6,4.1,4.1,8.8,4.1,13.8c0,9.5-5.3,18.5-14.4,22.9c11.8,3,18.4,10.4,18.4,19.6C1613.7,123.9,1601.1,133.4,1584.4,133.4z
		 M1595.2,67.9c0-7.9-4.9-14-13.1-14c-8,0-13.1,6.1-13.1,14c0,8.2,5,14.1,13.1,14.1C1590.3,82.1,1595.2,76.2,1595.2,67.9z"/>
	<path class="st5" d="M1654.4,103c-17.7,0-30-13.1-30-30.4c0-17.2,12.3-30.3,30.2-30.3c15.7,0,29.7,11.4,29.4,33.6h-44.8
		c0.6,8.5,6.5,15.4,15.5,15.4c6.7,0,11.5-2.6,13.6-7.3h14.8C1679.2,95.1,1668.4,103,1654.4,103z M1639.3,66.8h29.4
		c-0.8-8.4-6.7-13.2-14.4-13.2C1646,53.5,1640.7,58.8,1639.3,66.8z"/>
	<path class="st5" d="M1730.9,42.4c9.5,0,18.8,5.9,18.8,22.1v36.6h-15V67.6c0-8.8-3.8-13-9.9-13c-8.6,0-13.2,7.7-13.2,22.9v23.7
		h-14.9V44.3h14.9v12.8h0.3C1715.2,47.6,1721.8,42.4,1730.9,42.4z"/>
	<path class="st5" d="M1787.8,44.3h16v12.2h-16v44.7h-14.9V56.5H1759V44.3h13.9V28.9l14.8-13.1h0.2L1787.8,44.3L1787.8,44.3z"/>
	<path class="st5" d="M1813.5,81.1V44.3h15V78c0,8.7,3.8,12.8,9.6,12.8c8.5,0,13-7.7,13-22.8V44.2h14.9v56.9h-14.9V88.4h-0.2
		c-3.3,9.1-9.9,14.6-18.6,14.6C1822.7,103,1813.5,97.1,1813.5,81.1z"/>
	<path class="st5" d="M1919,43.1h0.6v14.7h-5c-10.4,0-16.9,3.5-16.9,19.4v23.9h-14.9V44.3h14.9v14.7h0.3
		C1901.9,47.6,1909.5,43.1,1919,43.1z"/>
</g>
<g>
	<path class="st5" d="M621.8,329.1c0,40.5-26.7,68.5-60.9,68.5c-16.4,0-29.1-7-36.3-16.4L498.8,398l-1.8-0.8V221.1l-19.4-13.5V206
		l50.6-18.2v89.5c8.3-10.4,22-17.6,37.4-17.6C596.4,259.8,621.8,285.2,621.8,329.1z M528.1,282.9v93.1c6,6.7,14,9.1,20.8,9.1
		c22.3,0,37.9-21.6,37.9-56c0-31.9-15.6-54.5-37.1-54.5C542.1,274.7,534.1,276.7,528.1,282.9z"/>
	<path class="st5" d="M650.6,347.5v-70.8l-17.6-5.5v-7h48.8v77.3c0,29.3,8.3,37.6,22.8,37.6c13.8,0,25.9-9.1,25.9-37.9v-64.6
		l-17.6-5.5v-7h48.8v116h19.4v7l-50.6,9.8v-32.9c-5.7,21.6-20.5,33.5-41.5,33.5C665.9,397.6,650.6,385.2,650.6,347.5z"/>
	<path class="st5" d="M800.5,387.5l8-0.5c8.8-0.5,10.1-1.3,10.1-9.6v-82.2l-19.4-14.5v-1.5l50.6-20.2v42.8
		c6.7-29.1,24.9-39.9,46.4-39.9h2.3v31.4l-11.7-1.5c-28.8-3.9-37.1,7.8-37.1,22.8v63.1c0,8.3,2.1,8.6,10.9,9.1l13.8,0.8v7.3h-73.9
		L800.5,387.5L800.5,387.5z"/>
	<path class="st5" d="M956.2,348.6L939.3,368l65.9,6.5c35.5,3.4,47,13.5,47,30.9c0,29.6-41,56.5-93.7,56.5
		c-30.1,0-47.8-12.2-47.8-28.5c0-16.4,20.2-28.3,44.1-31.7c-12.7-3.9-31.9-14-39.2-18.4l32.7-37.6c-17.1-7.5-28-22.6-28-40
		c0-25.7,23.4-45.9,56-45.9c15,0,28.3,4.4,37.9,11.7l9.6-18.4h40.7l-11.2,21h-35.8c9.1,8,14.2,19,14.2,31.1
		c0,25.7-23.4,45.9-56.3,45.9C968.7,351.2,962.2,350.1,956.2,348.6z M1025.5,421.5c0-13.8-17.1-18.4-47-18.4
		c-31.7,0-45.4,12.4-45.4,24.4c0,13.5,11.4,24.1,36.9,24.1C998,451.6,1025.5,438.1,1025.5,421.5z M1001.6,314.8
		c0-24.9-11.2-48-30.3-48c-11.7,0-20,9.3-20,29.1c0,24.6,11.2,47.7,30.6,47.7C993.6,343.7,1001.6,334.3,1001.6,314.8z"/>
	<path class="st5" d="M1066.2,329.4c0-42,32.4-69.5,66.4-69.5c28.5,0,54,15.6,61.7,51.4h-95.7c0,1.3,0,2.6,0,3.9
		c0,36.1,19.2,62,48.5,62c16.6,0,37.1-7.8,44.9-33.7h6.7c-6.7,36.6-30.9,54.2-63.8,54.2C1093,397.6,1066.2,370.1,1066.2,329.4z
		 M1099.4,302.1h58.9c-0.8-21.8-9.3-35-26.7-35C1115.3,267.1,1102.8,279.3,1099.4,302.1z"/>
	<path class="st5" d="M1215.9,387.5l8-0.5c8.8-0.5,10.1-1.3,10.1-9.6v-82.2l-19.4-14.5v-1.5l50.6-20.2v34.5
		c5.5-21.6,20.2-33.5,41.2-33.5c23.4,0,38.7,12.7,38.7,50.1v67.5c0,8.3,1.3,9.1,10.1,9.6l8,0.5v7h-66.1v-7l7-0.5
		c8.8-0.8,9.8-1.3,9.8-9.6v-61.6c0-29.3-8.6-37.4-23.1-37.4c-13.8,0-25.7,8.8-25.7,37.6v61.2c0,8.3,0.8,8.8,9.8,9.6l6.7,0.5v7h-65.9
		V387.5z"/>
	<path class="st5" d="M1381.2,387.5l8-0.5c8.8-0.5,10.1-1.3,10.1-9.6V221.2l-19.4-13.5v-1.5l50.6-18.2v189.4c0,8.3,1.3,9.1,10.1,9.6
		l8,0.5v7h-67.5L1381.2,387.5L1381.2,387.5z"/>
	<path class="st5" d="M1468.7,362.6c0-23.9,27.5-31.7,47.7-38.7c28.5-10.1,30.9-19.4,30.9-31.9c0-13.2-9.1-23.6-24.4-23.6
		c-19,0-29.3,14.8-23.4,38.7c-5.2,1.1-9.6,1.3-13.2,1.3c-13.5,0-19.2-6.2-19.2-13.2c0-8,12.2-16.8,28-24.1c13-6,28-11.2,44.4-11.2
		c22.6,0,37.6,8.6,37.1,36.6l-1.3,85.1l18.7-0.8v7l-45.4,9.1l-2.1-26.2c-6.7,20.2-20.2,27-36.3,27
		C1485.8,397.6,1468.7,381.8,1468.7,362.6z M1545.7,351.4l0.5-37.3c-5.7,4.7-9.8,7-17.9,11.6c-15.6,9.1-24.9,17.9-24.9,33.2
		c0,12.7,7,25.7,20.2,25.7C1534,384.6,1545.4,375.5,1545.7,351.4z"/>
	<path class="st5" d="M1611.4,387.5l8-0.5c8.8-0.5,10.1-1.3,10.1-9.6v-82.2l-19.4-14.5v-1.5l50.6-20.2v34.5
		c5.5-21.6,20.2-33.5,41.2-33.5c23.4,0,38.7,12.7,38.7,50.1v67.5c0,8.3,1.3,9.1,10.1,9.6l8,0.5v7h-66.1v-7l7-0.5
		c8.8-0.8,9.8-1.3,9.8-9.6v-61.6c0-29.3-8.6-37.4-23.1-37.4c-13.8,0-25.7,8.8-25.7,37.6v61.2c0,8.3,0.8,8.8,9.8,9.6l6.7,0.5v7h-65.9
		L1611.4,387.5L1611.4,387.5z"/>
	<path class="st5" d="M1776.1,328.6c0-40.5,26.5-68.7,60.7-68.7c13.2,0,25.2,5.7,32.7,14.5v-53.2l-24.1-13.5v-1.5l55.3-18.2v193
		l19.4-0.8v7l-50.6,9.8v-16.8c-8.6,10.4-22.1,17.4-37.4,17.4C1801.2,397.6,1776.1,372.2,1776.1,328.6z M1848.2,382.8
		c7.3,0,15.6-2.1,21.3-8.3v-93.9c-6-6.5-13.8-8.6-20.8-8.6c-22,0-37.9,21.8-37.9,56.3C1810.9,360.2,1826.4,382.8,1848.2,382.8z"/>
</g>
</svg>
